<svg  viewBox="0 0 20 13" fill="none" xmlns="http://www.w3.org/2000/svg">
<path fill-rule="evenodd" clip-rule="evenodd" d="M3.83013e-05 6.91511C3.83228e-05 6.66933 0.179789 6.4655 0.415549 6.42574C0.422632 6.41785 0.428867 6.40951 0.436548 6.40201L6.85321 0.141875C7.05001 -0.0498903 7.36612 -0.0470116 7.55909 0.148973C7.75211 0.344858 7.74887 0.659486 7.55206 0.851599L1.84637 6.4182L19.4679 6.4182C19.7435 6.4182 19.9669 6.64089 19.9669 6.91511C19.9669 7.18953 19.7435 7.41202 19.4679 7.41202L1.98054 7.41202L7.55206 11.9848C7.74887 12.1769 7.75211 12.4916 7.55909 12.6874C7.36612 12.8836 7.05001 12.8865 6.8532 12.6945L0.436548 7.42795C0.428967 7.42056 0.422831 7.41232 0.415799 7.40452C0.179938 7.36491 3.82798e-05 7.16113 3.83013e-05 6.91511Z" fill="#AFAFB0"/>
</svg>
