<svg viewBox="0 0 20 13" fill="none" xmlns="http://www.w3.org/2000/svg">
<path fill-rule="evenodd" clip-rule="evenodd" d="M19.9834 5.92144C19.9834 6.16721 19.8036 6.37104 19.5678 6.41081C19.5608 6.4187 19.5545 6.42704 19.5469 6.43453L13.1302 12.6947C12.9334 12.8864 12.6173 12.8836 12.4243 12.6876C12.2313 12.4917 12.2345 12.1771 12.4313 11.9849L18.137 6.41835L0.515532 6.41835C0.239921 6.41835 0.0164795 6.19566 0.0164795 5.92144C0.0164795 5.64702 0.239921 5.42453 0.515532 5.42453L18.0029 5.42453L12.4313 0.851704C12.2345 0.659641 12.2313 0.344964 12.4243 0.149128C12.6173 -0.0470547 12.9334 -0.0499339 13.1302 0.14203L19.5469 5.40859C19.5544 5.41599 19.5606 5.42423 19.5676 5.43202C19.8035 5.47164 19.9834 5.67542 19.9834 5.92144Z" fill="#717172"/>
</svg>
