<svg  viewBox="0 0 54 39" fill="none" xmlns="http://www.w3.org/2000/svg">
<path d="M53.2651 6.66797C51.2743 7.21094 49.3965 7.95752 47.6318 8.90771C45.9124 9.85791 44.3966 10.9438 43.0845 12.1655C41.8175 13.342 40.7995 14.6315 40.0303 16.0342C39.3063 17.3916 38.9443 18.7716 38.9443 20.1743C38.9443 20.672 38.967 21.1245 39.0122 21.5317C39.0575 21.939 39.1253 22.1426 39.2158 22.1426C39.623 22.1426 40.0303 22.0521 40.4375 21.8711C40.8447 21.6449 41.2746 21.396 41.7271 21.1245C42.1795 20.853 42.6772 20.6268 43.2202 20.4458C43.8084 20.2196 44.4645 20.1064 45.1885 20.1064C46.2744 20.1064 47.2925 20.3327 48.2427 20.7852C49.2381 21.2376 50.0978 21.8711 50.8218 22.6855C51.591 23.4548 52.1792 24.4049 52.5864 25.5361C53.0389 26.6221 53.2651 27.8438 53.2651 29.2012C53.2651 30.5586 52.971 31.8255 52.3828 33.002C51.8398 34.1331 51.0933 35.1512 50.1431 36.0562C49.1929 36.9159 48.0617 37.5946 46.7495 38.0923C45.4373 38.59 44.0347 38.8389 42.5415 38.8389C40.7316 38.8389 39.0348 38.4543 37.4512 37.6851C35.8675 36.8706 34.4648 35.762 33.2432 34.3594C32.0667 32.9567 31.1392 31.3278 30.4604 29.4727C29.7817 27.5723 29.4424 25.5588 29.4424 23.4321C29.4424 20.2648 30.0758 17.3237 31.3428 14.6089C32.6097 11.894 34.3291 9.54118 36.501 7.55029C38.6729 5.51416 41.1841 3.88525 44.0347 2.66357C46.9305 1.44189 50.0073 0.717936 53.2651 0.491699V6.66797ZM24.3521 6.66797C22.3612 7.21094 20.4834 7.95752 18.7188 8.90771C16.9993 9.85791 15.4836 10.9438 14.1714 12.1655C12.9045 13.342 11.8864 14.6315 11.1172 16.0342C10.3932 17.3916 10.0312 18.7716 10.0312 20.1743C10.0312 20.672 10.0539 21.1245 10.0991 21.5317C10.1896 21.939 10.3027 22.1426 10.4385 22.1426C10.8005 22.1426 11.1624 22.0521 11.5244 21.8711C11.9316 21.6449 12.3615 21.396 12.814 21.1245C13.2664 20.853 13.7642 20.6268 14.3071 20.4458C14.8953 20.2196 15.5288 20.1064 16.2075 20.1064C17.3387 20.1064 18.3794 20.3327 19.3296 20.7852C20.325 21.2376 21.1847 21.8711 21.9087 22.6855C22.6779 23.4548 23.2661 24.4049 23.6733 25.5361C24.1258 26.6221 24.3521 27.8438 24.3521 29.2012C24.3521 30.5586 24.0806 31.8255 23.5376 33.002C22.9946 34.1331 22.2254 35.1512 21.23 36.0562C20.2798 36.9159 19.1486 37.5946 17.8364 38.0923C16.5243 38.59 15.1216 38.8389 13.6284 38.8389C11.8185 38.8389 10.0991 38.4543 8.47021 37.6851C6.88656 36.8706 5.50651 35.762 4.33008 34.3594C3.15365 32.9567 2.20345 31.3278 1.47949 29.4727C0.800781 27.5723 0.461426 25.5588 0.461426 23.4321C0.461426 20.2648 1.09489 17.3237 2.36182 14.6089C3.67399 11.894 5.41602 9.54118 7.58789 7.55029C9.75977 5.51416 12.2936 3.88525 15.1895 2.66357C18.0853 1.44189 21.1395 0.717936 24.3521 0.491699V6.66797Z" fill="#0BABCE" fill-opacity="0.2"/>
</svg>
