<svg  viewBox="0 0 111 111" fill="none" xmlns="http://www.w3.org/2000/svg">
<circle cx="55.5" cy="55.75" r="55" fill="#0898B8"/>
<g clip-path="url(#clip0_8_606)">
<path fill-rule="evenodd" clip-rule="evenodd" d="M85.236 46.067C84.438 48.049 82.774 49.551 80.242 50.574C77.361 51.739 74.518 50.491 71.72 46.833C71.397 46.181 71.076 45.86 70.774 45.887C70.772 45.762 69.447 46.781 66.802 48.934C64.159 51.091 61.088 53.912 57.593 57.408C57.389 57.566 57.176 57.759 56.97 57.925L57.878 58.834C58.944 59.9 61.156 61.636 64.512 64.046C66.606 65.583 68.411 66.957 69.929 68.159C71.447 69.363 72.845 70.598 74.106 71.859C76.674 74.427 78.488 76.68 79.555 78.61C80.621 80.549 80.858 81.813 80.268 82.403C79.715 82.956 78.45 82.698 76.478 81.63C74.502 80.566 72.249 78.771 69.722 76.243C68.46 74.982 67.236 73.599 66.055 72.098C64.868 70.599 63.503 68.762 61.966 66.592C59.597 63.275 57.86 61.064 56.754 59.958L55.741 58.945C54.876 59.695 53.1 60.492 53.103 61.377C51.561 62.899 50.036 64.315 48.522 65.62C45.049 69.503 41.754 73.013 38.642 76.148C35.525 79.285 32.076 82.394 28.296 85.478L42.211 69.665L25.908 83.09C29.03 79.227 32.189 75.754 35.376 72.669C38.561 69.584 42.127 66.334 46.072 62.926L52.799 56.003L41.239 44.443C40.883 44.56 40.548 44.463 40.232 44.147L33.66 37.575C33.065 36.98 33.065 36.389 33.659 35.795C34.249 35.205 34.842 35.203 35.437 35.798L42.009 42.37C42.325 42.686 42.443 43 42.364 43.319L53.907 54.863L54.56 54.191C58.624 50.246 61.618 46.986 63.539 44.414C65.459 41.836 66.422 40.451 66.423 40.246C66.461 39.877 66.154 39.57 65.501 39.324C61.762 36.609 60.577 33.707 61.947 30.622C62.967 28.252 64.543 26.745 66.681 26.102C68.815 25.458 70.598 25.607 72.028 26.547C73.457 27.485 74.07 29.171 73.866 31.604C73.665 34.034 71.732 37.138 68.077 40.921C66.255 43.23 64.422 45.531 62.574 47.83C60.725 50.13 58.892 52.452 57.073 54.804L70.466 44.107C74.45 40.941 77.673 39.312 80.133 39.218C82.597 39.124 84.262 39.75 85.131 41.086C85.998 42.426 86.031 44.086 85.236 46.067ZM47.909 63.782C47.622 63.495 47.317 63.515 46.989 63.843C46.642 64.19 46.611 64.505 46.898 64.793C47.164 65.058 47.471 65.018 47.818 64.672C48.146 64.343 48.174 64.047 47.909 63.782ZM57.346 59.958C58.688 61.301 60.622 63.707 63.15 67.183C65.913 71.052 68.164 73.854 69.902 75.592C72.233 77.923 74.353 79.668 76.268 80.836C78.182 82 79.358 82.361 79.792 81.927C80.225 81.495 79.868 80.331 78.726 78.434C77.582 76.541 75.824 74.407 73.455 72.038C71.717 70.301 68.912 68.052 65.044 65.289C61.569 62.759 59.164 60.826 57.821 59.483L56.583 58.245C56.41 58.388 56.238 58.528 56.064 58.677L57.346 59.958ZM41.891 43.553C42.01 43.2 41.947 42.902 41.712 42.667L35.14 36.095C34.746 35.701 34.348 35.697 33.955 36.09C33.598 36.448 33.621 36.825 34.015 37.219L40.588 43.792C40.823 44.026 41.082 44.085 41.357 43.97L53.09 55.703L53.559 55.221L41.891 43.553ZM70.373 36.72C71.414 35.354 72.213 33.77 72.765 31.973C73.317 30.17 72.969 28.811 71.723 27.896C70.109 26.689 68.426 26.448 66.681 27.173C64.933 27.9 63.557 29.6 62.558 32.278C62.048 33.608 62.217 34.848 63.062 36C63.912 37.156 64.714 37.925 65.469 38.314C67.392 39.092 69.026 38.56 70.373 36.72ZM84.409 42.117C83.777 40.869 82.807 40.224 81.5 40.183C79.882 40.205 78.106 40.674 76.164 41.595C74.225 42.514 73.022 43.639 72.547 44.965C71.917 46.702 73.21 48.248 76.424 49.609C79.643 50.967 82.292 49.623 84.381 45.58C85.035 44.516 85.041 43.361 84.409 42.117ZM46.037 40.828L42.54 42.31L35.197 34.967L36.619 31.649C36.696 31.333 36.855 31.059 37.094 30.82C37.447 30.467 37.884 30.289 38.397 30.289C38.911 30.29 39.344 30.465 39.701 30.822L46.688 37.809C47.045 38.166 47.219 38.599 47.221 39.113C47.221 39.626 47.042 40.062 46.689 40.415C46.569 40.535 46.35 40.673 46.037 40.828ZM39.286 43.789L33.717 46.278C33.008 46.438 32.396 46.259 31.882 45.745C31.407 45.27 31.23 44.698 31.35 44.029L33.779 38.282L39.286 43.789Z" fill="white"/>
</g>
<defs>
<clipPath id="clip0_8_606">
<rect width="61" height="61" fill="white" transform="translate(25 25.25)"/>
</clipPath>
</defs>
</svg>
