<svg viewBox="0 0 21 17" fill="none" xmlns="http://www.w3.org/2000/svg">
<path fill-rule="evenodd" clip-rule="evenodd" d="M20.4699 16.117C19.8779 16.98 18.7009 17.196 17.8439 16.598L13.0839 14.195C12.5349 13.813 12.2509 13.191 12.2719 12.567C11.2719 13.645 9.95891 14.37 8.48891 14.639C6.68191 14.97 4.85791 14.574 3.35191 13.526C1.84491 12.477 0.833907 10.899 0.504907 9.083C0.175907 7.265 0.568907 5.428 1.61191 3.912C3.76591 0.779999 8.05191 -0.00500166 11.1649 2.162C13.9909 4.131 14.8939 7.867 13.4249 10.882C13.9989 10.639 14.6799 10.687 15.2319 11.071L19.9929 13.474C20.8499 14.072 21.0649 15.255 20.4699 16.117ZM11.9669 6.981C11.7379 5.715 11.0329 4.615 9.98291 3.884C7.81291 2.372 4.82391 2.918 3.31991 5.102C1.81791 7.288 2.36191 10.295 4.53291 11.805C6.70291 13.317 9.69191 12.771 11.1949 10.586C11.9219 9.529 12.1959 8.249 11.9669 6.981Z" fill="#BBBBBB"/>
</svg>
