<svg viewBox="0 0 110 111" fill="none" xmlns="http://www.w3.org/2000/svg">
<circle cx="55" cy="55.75" r="55" fill="#0898B8"/>
<g clip-path="url(#clip0_8_605)">
<path fill-rule="evenodd" clip-rule="evenodd" d="M75.505 34.465C75.409 34.756 75.297 35.033 75.167 35.298L71.218 43.359C70.183 45.469 68.272 46.855 66.064 47.712C66.138 48.459 65.637 49.153 64.883 49.295C62.148 49.814 59.565 49.878 57.132 49.485L56.773 50.738C56.585 51.395 56.048 51.856 55.423 51.996L53.871 57.416C52.469 62.316 48.572 64.573 44.666 66.836C41.033 68.943 37.39 71.051 36.1 75.365C34.879 79.446 36.331 83.52 39.555 86.247C40.193 86.787 40.899 87.274 41.665 87.696C42.44 88.125 43.272 88.491 44.16 88.779L44.268 88.814C47.491 89.839 50.615 89.656 53.256 88.629C55.378 87.802 57.192 86.426 58.497 84.694C59.794 82.971 60.581 80.895 60.661 78.655C60.685 77.988 60.641 77.305 60.535 76.612C60.16 76.498 59.835 76.235 59.696 75.841L59.053 74.015C58.254 74.189 57.409 74.197 56.571 73.956C53.863 73.183 52.286 70.342 53.062 67.635C53.837 64.928 56.676 63.352 59.385 64.127C62.094 64.902 63.668 67.743 62.893 70.45C62.615 71.425 62.062 72.244 61.351 72.868L62.1 74.992C62.238 75.38 62.157 75.779 61.947 76.101C62.104 76.985 62.176 77.859 62.146 78.711C62.053 81.264 61.158 83.628 59.685 85.586C58.221 87.53 56.178 89.079 53.791 90.007C50.849 91.153 47.381 91.358 43.819 90.227L43.816 90.225L43.704 90.188H43.702C42.718 89.867 41.797 89.465 40.948 88.997C40.094 88.523 39.307 87.981 38.596 87.38C34.928 84.276 33.28 79.62 34.682 74.943C36.14 70.065 40.037 67.808 43.922 65.555C47.566 63.442 51.203 61.336 52.442 57.007L53.966 51.687C53.381 51.251 53.091 50.484 53.303 49.744L53.64 48.569C51.086 47.626 48.731 46.119 46.582 44.044C45.997 43.48 45.979 42.546 46.545 41.96C46.553 41.952 46.563 41.95 46.571 41.942C45.256 40.103 44.454 38.001 44.683 35.761L45.597 26.832C45.628 26.539 45.68 26.243 45.752 25.948C46.113 24.481 46.98 23.204 48.228 22.342C49.468 21.488 51.077 21.041 52.93 21.231C53.169 21.256 53.43 21.316 53.685 21.365C53.989 20.874 54.494 20.715 55.296 20.946C56.324 21.239 56.956 22.187 56.706 23.061C56.456 23.934 55.554 23.936 54.524 23.64C53.717 23.408 53.377 22.974 53.387 22.377C53.198 22.344 53.007 22.298 52.82 22.279C51.233 22.117 49.864 22.489 48.824 23.205C47.789 23.921 47.071 24.981 46.77 26.201C46.714 26.433 46.671 26.68 46.644 26.94L45.731 35.869C45.524 37.898 46.3 39.822 47.556 41.514C47.94 41.501 48.329 41.633 48.629 41.921C50.789 44.006 53.169 45.418 55.768 46.164C58.383 46.912 61.236 46.993 64.331 46.405C64.803 46.316 65.247 46.48 65.577 46.778C67.605 46.011 69.349 44.775 70.27 42.895L74.222 34.836C74.336 34.599 74.432 34.368 74.506 34.141C74.897 32.948 74.847 31.668 74.349 30.514C73.847 29.356 72.881 28.316 71.448 27.612C71.277 27.529 71.089 27.466 70.909 27.394C70.602 27.903 70.09 28.098 69.282 27.866C68.254 27.571 67.488 27.09 67.737 26.218C67.987 25.344 69.025 24.876 70.055 25.17C70.86 25.401 71.209 25.802 71.205 26.382C71.444 26.475 71.695 26.561 71.909 26.666L71.911 26.667C73.582 27.484 74.711 28.714 75.312 30.096C75.914 31.488 75.975 33.031 75.505 34.465Z" fill="white"/>
</g>
<defs>
<clipPath id="clip0_8_605">
<rect width="42" height="71" fill="white" transform="translate(34 20.25)"/>
</clipPath>
</defs>
</svg>
