<svg  viewBox="0 0 20 14" fill="none" xmlns="http://www.w3.org/2000/svg">
<path fill-rule="evenodd" clip-rule="evenodd" d="M20.0001 6.42144C20.0001 6.66721 19.8203 6.87104 19.5846 6.91081C19.5775 6.9187 19.5713 6.92704 19.5636 6.93453L13.1469 13.1947C12.9501 13.3864 12.634 13.3836 12.441 13.1876C12.248 12.9917 12.2513 12.6771 12.4481 12.4849L18.1537 6.91835H0.532255C0.256645 6.91835 0.0332031 6.69566 0.0332031 6.42144C0.0332031 6.14702 0.256645 5.92453 0.532255 5.92453H18.0196L12.4481 1.3517C12.2513 1.15964 12.248 0.844964 12.441 0.649128C12.634 0.452945 12.9501 0.450066 13.1469 0.64203L19.5636 5.90859C19.5712 5.91599 19.5773 5.92423 19.5843 5.93202C19.8202 5.97164 20.0001 6.17542 20.0001 6.42144Z" fill="white"/>
</svg>
